<svg width="18" height="20" viewBox="0 0 18 20" fill="none" xmlns="http://www.w3.org/2000/svg">
<path d="M1.60862 7.9147C1.41649 7.82884 1.29243 7.79071 1.17822 7.66843C1.06412 7.54615 0.999999 7.38032 0.999999 7.2074C0.999999 7.03448 1.06412 6.86864 1.17822 6.74637C1.29243 6.6241 1.33095 6.55084 1.60862 6.46352C1.8864 6.3762 15.3884 1.4829 15.3884 1.4829C15.6039 1.40388 15.8357 1.39119 16.0576 1.44628C16.2794 1.50136 16.4824 1.62202 16.6435 1.79453C16.8045 1.96703 16.9171 2.18448 16.9686 2.42214C17.02 2.6598 17.0081 2.90815 16.9344 3.13897C16.9344 3.13897 12.2619 17.715 12.2048 17.9131C12.1477 18.1113 12.0741 18.2518 11.96 18.3741C11.8458 18.4965 11.691 18.5651 11.5296 18.5651C11.3682 18.5651 11.2134 18.4965 11.0992 18.3741C10.9851 18.2518 10.959 18.1826 10.8734 17.9131C10.7878 17.6437 8.48635 10.5326 8.48635 10.5326C8.48635 10.5326 1.80074 8.00057 1.60862 7.9147Z" stroke="#919191" stroke-width="2" stroke-linecap="round" stroke-linejoin="round"/>
</svg>
