<svg width="94" height="94" viewBox="0 0 94 94" fill="none" xmlns="http://www.w3.org/2000/svg">
<path d="M0 47C0 72.9574 21.0426 94 47 94C72.9574 94 94 72.9574 94 47C94 21.0426 72.9574 0 47 0C21.0426 0 0 21.0426 0 47Z" fill="#FF0000"/>
<path d="M69.325 35.5438C68.7375 33.4876 67.2688 32.0188 65.2125 31.4313C61.6875 30.55 46.7062 30.55 46.7062 30.55C46.7062 30.55 32.0188 30.55 28.2 31.4313C26.1438 32.0188 24.675 33.4876 24.0875 35.5438C23.5 39.3626 23.5 47 23.5 47C23.5 47 23.5 54.6375 24.3813 58.4563C24.9688 60.5125 26.4375 61.9813 28.4937 62.5688C32.0187 63.45 47 63.4501 47 63.4501C47 63.4501 61.6875 63.45 65.5062 62.5688C67.5625 61.9813 69.0313 60.5125 69.6188 58.4563C70.5 54.6375 70.5 47 70.5 47C70.5 47 70.5 39.3626 69.325 35.5438ZM42.3 54.05V39.9501L54.6375 47L42.3 54.05Z" fill="white"/>
</svg>
