<svg width="92" height="94" viewBox="0 0 92 94" fill="none" xmlns="http://www.w3.org/2000/svg">
<g opacity="0.8">
<path d="M0 47C0 72.9574 20.5949 94 46 94C71.4051 94 92 72.9574 92 47C92 21.0426 71.4051 0 46 0C20.5949 0 0 21.0426 0 47Z" fill="#1877F2"/>
<path d="M69 47C69 34.075 58.65 23.5 46 23.5C33.35 23.5 23 34.075 23 47C23 58.75 31.3375 68.4437 42.2625 70.2062V53.7562H36.5125V47H42.2625V41.7125C42.2625 35.8375 45.7125 32.6063 50.8875 32.6063C53.475 32.6063 56.0625 33.1938 56.0625 33.1938V39.0688H53.1875C50.3125 39.0688 49.45 40.8312 49.45 42.5938V47H55.775L54.625 53.7562H49.1625V70.5C60.6625 68.7375 69 58.75 69 47Z" fill="white"/>
</g>
</svg>
