<svg width="94" height="93" viewBox="0 0 94 93" fill="none" xmlns="http://www.w3.org/2000/svg">
<path d="M0 46.5C0 72.1812 21.0426 93 47 93C72.9574 93 94 72.1812 94 46.5C94 20.8188 72.9574 0 47 0C21.0426 0 0 20.8188 0 46.5Z" fill="url(#paint0_linear_1_736)"/>
<path d="M47.0004 26.7375C53.4629 26.7375 54.3441 26.7375 56.9879 26.7375C59.3379 26.7375 60.5129 27.3188 61.3941 27.6094C62.5691 28.1907 63.4504 28.4813 64.3316 29.3532C65.2129 30.2251 65.8004 31.0969 66.0941 32.2594C66.3879 33.1313 66.6816 34.2938 66.9754 36.6188C66.9754 39.2344 66.9754 39.8157 66.9754 46.5001C66.9754 53.1844 66.9754 53.7657 66.9754 56.3813C66.9754 58.7063 66.3879 59.8688 66.0941 60.7407C65.5066 61.9032 65.2129 62.7751 64.3316 63.6469C63.4504 64.5188 62.5691 65.1001 61.3941 65.3907C60.5129 65.6813 59.3379 65.9719 56.9879 66.2626C54.3441 66.2626 53.7566 66.2626 47.0004 66.2626C40.2441 66.2626 39.6566 66.2626 37.0129 66.2626C34.6629 66.2626 33.4879 65.6813 32.6066 65.3907C31.4316 64.8094 30.5504 64.5188 29.6691 63.6469C28.7879 62.7751 28.2004 61.9032 27.9066 60.7407C27.6129 59.8688 27.3191 58.7063 27.0254 56.3813C27.0254 53.7657 27.0254 53.1844 27.0254 46.5001C27.0254 39.8157 27.0254 39.2344 27.0254 36.6188C27.0254 34.2938 27.6129 33.1313 27.9066 32.2594C28.4941 31.0969 28.7879 30.2251 29.6691 29.3532C30.5504 28.4813 31.4316 27.9 32.6066 27.6094C33.4879 27.3188 34.6629 27.0282 37.0129 26.7375C39.6566 26.7375 40.5379 26.7375 47.0004 26.7375ZM47.0004 22.3782C40.2441 22.3782 39.6566 22.3782 37.0129 22.3782C34.3691 22.3782 32.6066 22.9594 31.1379 23.5407C29.6691 24.1219 28.2004 24.9938 26.7316 26.4469C25.2629 27.9001 24.6754 29.0626 23.7941 30.8063C23.2066 32.2594 22.9129 34.0032 22.6191 36.6188C22.6191 39.2344 22.6191 40.1063 22.6191 46.5001C22.6191 53.1844 22.6191 53.7657 22.6191 56.3813C22.6191 58.9969 23.2066 60.7407 23.7941 62.1938C24.3816 63.6469 25.2629 65.1001 26.7316 66.5532C28.2004 68.0063 29.3754 68.5876 31.1379 69.4594C32.6066 70.0407 34.3691 70.3313 37.0129 70.6219C39.6566 70.6219 40.5379 70.6219 47.0004 70.6219C53.4629 70.6219 54.3441 70.6219 56.9879 70.6219C59.6316 70.6219 61.3941 70.0407 62.8629 69.4594C64.3316 68.8782 65.8004 68.0063 67.2691 66.5532C68.7379 65.1001 69.3254 63.9376 70.2066 62.1938C70.7941 60.7407 71.0879 58.9969 71.3816 56.3813C71.3816 53.7657 71.3816 52.8938 71.3816 46.5001C71.3816 40.1063 71.3816 39.2344 71.3816 36.6188C71.3816 34.0032 70.7941 32.2594 70.2066 30.8063C69.6191 29.3532 68.7379 27.9001 67.2691 26.4469C65.8004 24.9938 64.6254 24.4126 62.8629 23.5407C61.3941 22.9594 59.6316 22.6688 56.9879 22.3782C54.3441 22.3782 53.7566 22.3782 47.0004 22.3782Z" fill="white"/>
<path d="M47.0004 34.0032C39.9504 34.0032 34.3691 39.5251 34.3691 46.5001C34.3691 53.4751 39.9504 58.9969 47.0004 58.9969C54.0504 58.9969 59.6316 53.4751 59.6316 46.5001C59.6316 39.5251 54.0504 34.0032 47.0004 34.0032ZM47.0004 54.6376C42.5941 54.6376 38.7754 51.1501 38.7754 46.5001C38.7754 42.1407 42.3004 38.3625 47.0004 38.3625C51.4066 38.3625 55.2254 41.8501 55.2254 46.5001C55.2254 50.8594 51.4066 54.6376 47.0004 54.6376Z" fill="white"/>
<path d="M59.9254 36.6188C61.5477 36.6188 62.8629 35.3176 62.8629 33.7126C62.8629 32.1075 61.5477 30.8063 59.9254 30.8063C58.3031 30.8063 56.9879 32.1075 56.9879 33.7126C56.9879 35.3176 58.3031 36.6188 59.9254 36.6188Z" fill="white"/>
<defs>
<linearGradient id="paint0_linear_1_736" x1="47" y1="0" x2="47" y2="93" gradientUnits="userSpaceOnUse">
<stop stop-color="#F00073"/>
<stop offset="1" stop-color="#66008A"/>
</linearGradient>
</defs>
</svg>
