<svg width="94" height="93" viewBox="0 0 94 93" fill="none" xmlns="http://www.w3.org/2000/svg">
<path d="M0 46.5C0 72.1812 21.0426 93 47 93C72.9574 93 94 72.1812 94 46.5C94 20.8188 72.9574 0 47 0C21.0426 0 0 20.8188 0 46.5Z" fill="#2867B2"/>
<path d="M34.075 69.75H24.0875V38.6531H34.075V69.75ZM29.0813 34.2938C25.85 34.2938 23.5 31.9687 23.5 28.7719C23.5 25.575 26.1438 23.25 29.0813 23.25C32.3125 23.25 34.6625 25.575 34.6625 28.7719C34.6625 31.9687 32.3125 34.2938 29.0813 34.2938ZM70.5 69.75H60.5125V52.8938C60.5125 47.9531 58.4562 46.5 55.5187 46.5C52.5812 46.5 49.6437 48.825 49.6437 53.1844V69.75H39.6562V38.6531H49.0562V43.0125C49.9375 40.9781 53.4625 37.7812 58.4562 37.7812C64.0375 37.7812 69.9125 40.9781 69.9125 50.5687V69.75H70.5Z" fill="white"/>
</svg>
