<svg width="25" height="25" viewBox="0 0 25 25" fill="none" xmlns="http://www.w3.org/2000/svg">
<path d="M21 9.94389C21 14.6804 17.1944 18.5201 12.5 18.5201C7.80556 18.5201 4 14.6804 4 9.94389C4 5.20738 7.80556 1.36768 12.5 1.36768C17.1944 1.36768 21 5.20738 21 9.94389Z" stroke="#919191" stroke-linecap="round" stroke-linejoin="round"/>
<path d="M12.8287 5.5927L13.935 7.6812C13.9598 7.73402 13.999 7.77973 14.0487 7.81367C14.0984 7.8476 14.1569 7.86854 14.218 7.87435L16.6751 8.22445C16.7453 8.23303 16.8115 8.26021 16.8659 8.30279C16.9203 8.34537 16.9607 8.4016 16.9823 8.46491C17.0038 8.52823 17.0058 8.59601 16.9878 8.66031C16.9699 8.72462 16.9328 8.78281 16.8809 8.82806L15.0671 10.4457C15.04 10.4942 15.0259 10.548 15.0259 10.6027C15.0259 10.6574 15.04 10.7112 15.0671 10.7596L15.4144 13.0533C15.4292 13.1196 15.4232 13.1886 15.3971 13.2517C15.371 13.3149 15.326 13.3696 15.2674 13.4092C15.2089 13.4488 15.1394 13.4716 15.0672 13.4749C14.9951 13.4782 14.9236 13.4617 14.8612 13.4276L12.6743 12.3411C12.6177 12.3171 12.5563 12.3047 12.4942 12.3047C12.4321 12.3047 12.3707 12.3171 12.3141 12.3411L10.1272 13.4276C10.0649 13.4617 9.99332 13.4782 9.92123 13.4749C9.84913 13.4716 9.77958 13.4488 9.72103 13.4092C9.66247 13.3696 9.61742 13.3149 9.59135 13.2517C9.56526 13.1886 9.55926 13.1196 9.57409 13.0533L9.98574 10.7596C10.0034 10.7064 10.0068 10.6499 9.99561 10.5951C9.98438 10.5403 9.95889 10.489 9.92141 10.4457L8.10758 8.81599C8.05947 8.77026 8.02569 8.71297 8.00996 8.65043C7.99424 8.58786 7.99717 8.52246 8.01843 8.46137C8.03968 8.40028 8.07846 8.34585 8.13048 8.30406C8.18251 8.26227 8.24579 8.23473 8.3134 8.22445L10.7704 7.88642C10.8316 7.88062 10.89 7.85967 10.9398 7.82575C10.9895 7.7918 11.0287 7.74609 11.0534 7.69328L12.1598 5.60478C12.1894 5.54565 12.236 5.49548 12.2944 5.45994C12.3528 5.4244 12.4206 5.40489 12.4902 5.40363C12.5598 5.40238 12.6284 5.41941 12.6882 5.45284C12.748 5.48625 12.7967 5.5347 12.8287 5.5927Z" stroke="#919191" stroke-linecap="round" stroke-linejoin="round"/>
<path d="M5.02199 14.4843L1 20.7181L5.34586 19.6761L6.51032 23.565L10 18.1563" stroke="#919191" stroke-linecap="round" stroke-linejoin="round"/>
<path d="M19.978 14.4843L24 20.7181L19.6541 19.6761L18.4897 23.565L15 18.1563" stroke="#919191" stroke-linecap="round" stroke-linejoin="round"/>
</svg>
