<svg width="94" height="94" viewBox="0 0 94 94" fill="none" xmlns="http://www.w3.org/2000/svg">
<circle cx="47" cy="47" r="47" fill="black"/>
<path d="M20.0537 47.3135C20.0537 62.0227 31.9779 73.9469 46.687 73.9469C61.3962 73.9469 73.3204 62.0227 73.3204 47.3135C73.3204 32.6043 61.3962 20.6802 46.687 20.6802C31.9779 20.6802 20.0537 32.6043 20.0537 47.3135Z" fill="white"/>
<path d="M46.6872 18.7998C30.9407 18.7998 18.1738 31.5667 18.1738 47.3131C18.1738 63.0596 30.9407 75.8265 46.6872 75.8265C62.4337 75.8265 75.2005 63.0596 75.2005 47.3131C75.2005 31.5667 62.4337 18.7998 46.6872 18.7998ZM53.9652 64.4972L44.7696 52.4859L34.2625 64.4972H28.422L42.0442 48.9241L27.6783 30.1291H39.7061L48.0083 41.1091L57.6149 30.1291H63.4483L50.7099 44.6852L65.6961 64.4948L53.9652 64.4972Z" fill="black"/>
<path d="M34.8369 33.7866L55.4638 60.7554H58.6242L38.2321 33.7866H34.8369Z" fill="black"/>
</svg>
